<?xml version="1.0" encoding="UTF-8" standalone="no"?>
<!-- Generated by IcoMoon.io -->

<svg
   xmlns:dc="http://purl.org/dc/elements/1.1/"
   xmlns:cc="http://creativecommons.org/ns#"
   xmlns:rdf="http://www.w3.org/1999/02/22-rdf-syntax-ns#"
   xmlns:svg="http://www.w3.org/2000/svg"
   xmlns="http://www.w3.org/2000/svg"
   xmlns:sodipodi="http://sodipodi.sourceforge.net/DTD/sodipodi-0.dtd"
   xmlns:inkscape="http://www.inkscape.org/namespaces/inkscape"
   version="1.1"
   width="16"
   height="16"
   viewBox="0 0 16 16"
   id="svg4184"
   inkscape:version="0.91 r13725"
   sodipodi:docname="link.svg">
  <metadata
     id="metadata4192">
    <rdf:RDF>
      <cc:Work
         rdf:about="">
        <dc:format>image/svg+xml</dc:format>
        <dc:type
           rdf:resource="http://purl.org/dc/dcmitype/StillImage" />
        <dc:title></dc:title>
      </cc:Work>
    </rdf:RDF>
  </metadata>
  <defs
     id="defs4190" />
  <sodipodi:namedview
     pagecolor="#ffffff"
     bordercolor="#666666"
     borderopacity="1"
     objecttolerance="10"
     gridtolerance="10"
     guidetolerance="10"
     inkscape:pageopacity="0"
     inkscape:pageshadow="2"
     inkscape:window-width="2048"
     inkscape:window-height="1108"
     id="namedview4188"
     showgrid="false"
     inkscape:zoom="48.55"
     inkscape:cx="10"
     inkscape:cy="10"
     inkscape:window-x="0"
     inkscape:window-y="0"
     inkscape:window-maximized="1"
     inkscape:current-layer="svg4184" />
  <path
     d="m 16,5.7777778 0,-2.2222222 -2.971429,0 L 13.714286,0.4444445 11.428571,0 l -0.8,3.5555556 -3.428571,0 L 8,0.4444445 5.7142857,0 l -0.8,3.5555556 -3.7714286,0 0,2.2222222 3.3142858,0 -1.0285715,4.4444442 -3.4285714,0 0,2.222222 2.9714286,0 L 2.2857143,15.555555 4.5714286,16 l 0.8,-3.555556 3.4285714,0 L 8,15.555555 10.285714,16 l 0.8,-3.555556 3.771429,0 0,-2.222222 -3.314286,0 1.028572,-4.4444442 3.428571,0 z m -6.8571432,4.4444442 -3.4285711,0 1.1428572,-4.4444442 3.4285711,0 -1.1428572,4.4444442 z"
     id="path4186"
     style="fill:#2436de;fill-opacity:.2"
     inkscape:connector-curvature="0" />
</svg>
