<?xml version="1.0" encoding="UTF-8" standalone="no"?>
<svg
   xmlns:dc="http://purl.org/dc/elements/1.1/"
   xmlns:cc="http://creativecommons.org/ns#"
   xmlns:rdf="http://www.w3.org/1999/02/22-rdf-syntax-ns#"
   xmlns:svg="http://www.w3.org/2000/svg"
   xmlns="http://www.w3.org/2000/svg"
   xmlns:sodipodi="http://sodipodi.sourceforge.net/DTD/sodipodi-0.dtd"
   xmlns:inkscape="http://www.inkscape.org/namespaces/inkscape"
   version="1.1"
   viewBox="0 0 20 20"
   enable-background="new 0 0 512 512"
   id="svg2"
   inkscape:version="0.91 r13725"
   sodipodi:docname="info.svg"
   width="20"
   height="20">
  <metadata
     id="metadata28">
    <rdf:RDF>
      <cc:Work
         rdf:about="">
        <dc:format>image/svg+xml</dc:format>
        <dc:type
           rdf:resource="http://purl.org/dc/dcmitype/StillImage" />
        <dc:title></dc:title>
      </cc:Work>
    </rdf:RDF>
  </metadata>
  <defs
     id="defs26" />
  <sodipodi:namedview
     pagecolor="#0EA5E9"
     bordercolor="#666666"
     borderopacity="1"
     objecttolerance="10"
     gridtolerance="10"
     guidetolerance="10"
     inkscape:pageopacity="0"
     inkscape:pageshadow="2"
     inkscape:window-width="2048"
     inkscape:window-height="1108"
     id="namedview24"
     showgrid="false"
     inkscape:zoom="48.55"
     inkscape:cx="10"
     inkscape:cy="13.558335"
     inkscape:window-x="0"
     inkscape:window-y="0"
     inkscape:window-maximized="1"
     inkscape:current-layer="svg2" />
  <g
     id="g4159"
     transform="matrix(1.230645,0,0,1.230645,-2.3064307,-4.6129003)">
    <path
       inkscape:connector-curvature="0"
       style="fill:#0EA5E9;fill-opacity:1"
       id="path8"
       d="M 13.372117,5.1071645 C 12.408655,4.1804447 11.14309,3.7027962 9.8040416,3.7517858 7.2361705,3.8538474 5.1418655,6.0257193 5.1337005,8.5976729 c -0.00408,1.139008 0.3959992,2.2494391 1.1267606,3.1230861 1.0532763,1.265565 1.6329864,2.861809 1.6329864,4.498878 0,0 -0.1102265,0.751174 0.4245765,0.751174 l 3.363952,0 c 0.54705,0 0.424576,-0.751174 0.424576,-0.751174 0,-1.600327 0.587876,-3.184324 1.702389,-4.580527 0.689937,-0.869565 1.057358,-1.9146765 1.057358,-3.0251072 0,-1.3349664 -0.53072,-2.584201 -1.494182,-3.5068383 z M 13.143499,11.10839 c -1.212493,1.518677 -1.861605,3.249642 -1.886099,5.013268 l -2.5147995,0 C 8.7181057,14.32129 8.073076,12.569912 6.9136557,11.177791 6.3135332,10.455195 5.9828535,9.5407226 5.9869359,8.6017554 5.9951009,6.4788731 7.721984,4.6866705 9.8407838,4.6009387 c 1.1063482,-0.040825 2.1514592,0.3551746 2.9434582,1.1185957 0.796081,0.7634211 1.232905,1.7922026 1.232905,2.8944684 -0.0041,0.9185548 -0.302103,1.7799552 -0.873648,2.4943872 z" />
    <path
       inkscape:connector-curvature="0"
       style="fill:#0EA5E9;fill-opacity:1"
       id="path12"
       d="m 11.698306,17.550521 -3.3966119,0 c -0.236783,0 -0.4245764,0.191876 -0.4245764,0.424576 0,0.236783 0.1918759,0.424577 0.4245764,0.424577 l 3.3966119,0 c 0.236783,0 0.424576,-0.191876 0.424576,-0.424577 0,-0.2327 -0.191876,-0.424576 -0.424576,-0.424576 z" />
    <path
       inkscape:connector-curvature="0"
       style="fill:#0EA5E9;fill-opacity:1"
       id="path14"
       d="m 11.057359,19.150848 -2.1106352,0 c -0.2367831,0 -0.4245765,0.191875 -0.4245765,0.424576 C 8.5221473,19.812207 8.7140232,20 8.9467238,20 l 2.1106352,0 c 0.236783,0 0.424576,-0.191875 0.424576,-0.424576 0,-0.232701 -0.191876,-0.424576 -0.424576,-0.424576 z" />
  </g>
</svg>
